<?xml version="1.0" standalone="no"?>
<!DOCTYPE svg PUBLIC "-//W3C//DTD SVG 20010904//EN"
 "http://www.w3.org/TR/2001/REC-SVG-20010904/DTD/svg10.dtd">
<svg version="1.0" xmlns="http://www.w3.org/2000/svg"
 width="1952.000000pt" height="1952.000000pt" viewBox="0 0 1952.000000 1952.000000"
 preserveAspectRatio="xMidYMid meet">
<metadata>
Created by potrace 1.11, written by Peter Selinger 2001-2013
</metadata>
<g transform="translate(0.000000,1952.000000) scale(0.100000,-0.100000)"
fill="#000000" stroke="none">
<path d="M3108 14556 c-1 -2 -43 -7 -93 -10 -49 -4 -103 -9 -120 -11 -16 -3
-48 -7 -70 -9 -22 -2 -53 -7 -70 -12 -16 -4 -41 -8 -55 -10 -14 -1 -25 -3 -25
-4 0 -2 -57 -10 -92 -13 -13 -1 -23 -5 -23 -8 0 -3 -6 -6 -12 -6 -7 0 -24 -3
-38 -6 -14 -3 -36 -8 -49 -11 -91 -20 -363 -108 -372 -120 -4 -5 -12 -5 -18
-2 -6 4 -11 2 -11 -4 0 -6 -4 -8 -10 -5 -5 3 -10 2 -10 -3 0 -5 -6 -9 -13 -9
-16 0 -264 -110 -287 -127 -8 -6 -50 -29 -92 -51 -43 -21 -78 -42 -78 -47 0
-4 -7 -8 -15 -8 -9 0 -25 -8 -36 -18 -10 -11 -32 -25 -47 -33 -33 -17 -80 -48
-106 -71 -11 -10 -23 -18 -28 -18 -4 0 -17 -8 -29 -17 -46 -39 -58 -49 -79
-63 -25 -17 -51 -38 -97 -81 -18 -16 -35 -29 -37 -29 -12 0 -276 -267 -276
-279 0 -7 -4 -9 -10 -6 -5 3 -10 2 -10 -4 0 -5 -14 -25 -31 -43 -48 -52 -155
-191 -207 -271 -26 -40 -50 -74 -53 -77 -20 -18 -164 -284 -219 -405 -37 -80
-54 -120 -55 -125 -1 -5 -42 -116 -52 -140 -3 -8 -7 -19 -8 -25 -2 -5 -14 -46
-29 -89 -14 -43 -23 -82 -21 -87 3 -4 1 -10 -4 -13 -5 -4 -15 -32 -22 -64 -7
-31 -14 -61 -15 -67 -3 -12 -12 -50 -18 -82 -3 -11 -8 -43 -12 -70 -3 -26 -9
-57 -11 -68 -8 -35 -19 -119 -30 -230 -10 -88 -9 -517 0 -609 7 -68 12 -101
23 -173 3 -21 7 -51 9 -68 3 -16 9 -50 15 -75 5 -25 11 -56 13 -70 2 -14 7
-32 10 -40 3 -8 8 -32 12 -52 10 -64 118 -399 135 -423 4 -5 11 -21 15 -35 4
-14 26 -63 48 -110 23 -47 42 -87 43 -90 11 -33 30 -70 36 -70 4 0 8 -5 8 -11
0 -21 165 -290 182 -297 5 -2 8 -9 8 -16 0 -7 8 -21 18 -32 10 -10 33 -40 51
-66 19 -27 38 -48 43 -48 4 0 8 -5 8 -11 0 -10 80 -106 145 -175 11 -11 39
-41 61 -65 60 -64 159 -154 268 -244 27 -22 58 -48 69 -57 11 -10 23 -18 27
-18 3 0 15 -8 26 -18 44 -41 330 -222 351 -222 6 0 13 -4 15 -8 7 -18 410
-202 441 -202 5 0 23 -6 40 -14 36 -16 157 -55 184 -59 10 -1 23 -5 28 -8 9
-6 85 -25 131 -34 11 -2 19 -4 19 -5 0 -1 16 -4 35 -6 19 -3 42 -8 50 -11 8
-3 24 -8 35 -9 66 -12 163 -27 180 -29 11 -1 20 -3 20 -4 0 -2 17 -4 155 -16
47 -4 101 -9 120 -11 94 -10 449 -3 585 11 103 11 128 14 255 35 85 14 75 12
155 29 33 8 67 15 75 16 8 2 17 4 20 5 3 1 10 3 15 5 6 1 13 3 18 5 8 3 9 3
57 14 19 5 40 11 45 14 6 4 19 7 30 8 11 1 50 13 88 27 37 14 67 23 67 20 0
-3 6 0 14 6 8 7 22 13 32 16 11 2 37 11 59 21 22 10 42 18 45 19 32 7 80 29
80 37 0 6 3 9 6 5 4 -3 28 5 54 18 26 13 50 21 54 18 3 -4 6 -1 6 5 0 7 7 12
15 12 8 0 15 5 15 10 0 6 7 10 16 10 15 0 81 35 94 49 3 4 11 7 18 9 7 1 49
25 93 52 44 28 85 50 90 50 5 0 9 4 9 8 0 5 12 15 27 23 15 8 35 19 43 26 8 6
61 46 118 88 102 76 143 111 229 193 25 23 47 42 48 42 6 0 84 81 154 159 36
41 76 86 89 100 13 14 31 38 40 53 9 16 19 28 23 28 4 0 17 16 30 36 12 20 33
48 45 62 13 14 24 31 24 38 0 8 4 14 8 14 5 0 17 16 28 35 10 19 22 35 26 35
5 0 8 4 8 9 0 13 81 144 95 153 5 4 7 8 3 8 -4 0 5 21 20 48 51 88 129 255
168 362 13 36 28 74 33 85 11 22 32 89 35 108 1 7 4 17 7 22 7 13 34 106 55
190 10 40 36 165 39 190 3 17 7 41 10 55 2 13 7 42 10 65 4 22 8 51 10 65 2
14 7 59 10 100 4 41 9 77 11 79 2 2 -1 12 -7 22 -6 13 -6 19 1 19 10 0 13 426
3 443 -3 5 -7 38 -9 73 -1 35 -5 79 -8 97 -2 17 -8 55 -12 82 -3 28 -8 59 -10
70 -3 11 -7 36 -10 55 -3 19 -12 62 -21 95 -14 55 -21 88 -27 122 -1 7 -5 15
-8 19 -4 3 -4 12 -1 20 3 8 1 14 -4 14 -5 0 -10 6 -11 13 -3 40 -16 83 -25 89
-7 4 -9 8 -5 8 7 0 -41 146 -67 205 -8 17 -20 46 -27 65 -15 39 -168 350 -180
365 -21 26 -88 137 -88 145 0 6 -4 10 -10 10 -5 0 -10 5 -10 11 0 7 -10 20
-22 30 -11 11 -18 19 -14 19 4 0 -3 13 -16 29 -12 15 -30 38 -38 50 -100 148
-378 434 -559 576 -28 22 -51 43 -51 47 0 5 -6 8 -14 8 -8 0 -21 6 -28 13 -34
31 -98 77 -107 77 -6 0 -11 5 -11 10 0 6 -7 10 -15 10 -8 0 -15 5 -15 10 0 6
-4 10 -8 10 -5 0 -58 30 -118 66 -95 57 -188 105 -339 175 -43 19 -193 80
-210 84 -5 1 -19 5 -30 9 -37 14 -70 24 -145 46 -41 12 -86 26 -100 30 -14 5
-47 13 -75 19 -27 7 -61 14 -75 17 -38 8 -58 12 -135 25 -38 6 -77 14 -85 17
-8 2 -28 6 -45 7 -16 1 -55 5 -85 9 -30 4 -75 10 -100 12 -51 6 -556 14 -562
10z"/>
<path d="M15878 14555 c-1 -2 -37 -6 -78 -9 -70 -5 -110 -9 -200 -20 -19 -2
-46 -6 -60 -10 -14 -3 -42 -8 -62 -11 -21 -2 -57 -9 -80 -14 -24 -6 -59 -13
-78 -16 -19 -3 -43 -8 -52 -11 -9 -3 -25 -7 -35 -9 -10 -2 -52 -13 -93 -25
-41 -11 -82 -22 -90 -24 -8 -2 -46 -16 -84 -30 -39 -13 -73 -23 -78 -20 -4 3
-8 0 -8 -5 0 -6 -9 -11 -20 -11 -11 0 -20 -5 -20 -11 0 -5 -3 -8 -8 -5 -4 2
-25 -4 -47 -14 -22 -11 -43 -19 -47 -20 -4 0 -35 -13 -68 -29 -33 -16 -60 -26
-60 -23 0 4 -4 3 -8 -3 -4 -5 -54 -34 -112 -63 -115 -59 -178 -95 -197 -111
-7 -6 -14 -11 -17 -11 -6 0 -159 -101 -166 -109 -3 -3 -24 -19 -47 -35 -24
-16 -43 -33 -43 -38 0 -5 -4 -7 -9 -4 -5 4 -11 3 -13 -1 -1 -5 -28 -28 -58
-53 -97 -79 -112 -93 -219 -200 -122 -122 -205 -214 -276 -308 -5 -7 -18 -22
-27 -32 -9 -10 -24 -33 -33 -49 -8 -17 -20 -31 -25 -31 -6 0 -10 -6 -10 -13 0
-7 -12 -26 -27 -42 -16 -16 -27 -31 -25 -32 1 -2 -13 -27 -32 -57 -19 -30 -42
-69 -52 -87 -9 -19 -20 -36 -24 -39 -17 -12 -163 -328 -208 -450 -67 -180
-146 -462 -146 -522 0 -16 -3 -28 -6 -28 -4 0 -7 -6 -7 -12 0 -7 -3 -33 -7
-58 -4 -25 -9 -61 -12 -80 -2 -19 -7 -51 -9 -70 -29 -211 -24 -677 8 -850 4
-20 20 -122 30 -200 2 -8 5 -19 8 -25 4 -5 9 -26 13 -45 6 -36 15 -77 20 -95
1 -5 8 -30 15 -55 7 -25 29 -94 49 -155 20 -60 37 -112 37 -115 1 -3 9 -22 18
-44 9 -21 17 -40 17 -43 0 -17 179 -382 197 -401 6 -6 15 -21 18 -32 3 -11 11
-20 16 -20 5 0 9 -5 9 -10 0 -13 100 -164 112 -168 4 -2 8 -8 8 -13 0 -12 37
-61 144 -189 110 -131 320 -339 427 -420 18 -14 37 -29 43 -35 43 -39 329
-231 349 -233 4 -1 19 -10 34 -22 14 -11 31 -20 39 -20 7 0 14 -4 16 -8 5 -12
219 -115 328 -157 52 -20 104 -41 115 -46 38 -17 256 -84 305 -94 8 -2 16 -4
18 -5 3 -3 30 -9 147 -35 91 -19 289 -50 390 -60 151 -15 446 -20 590 -11 106
7 269 24 295 31 8 2 38 7 65 10 28 4 70 11 95 17 25 5 56 12 70 14 131 22 485
129 517 156 7 6 13 8 13 5 0 -6 39 9 115 43 22 10 42 18 45 19 10 0 222 110
236 122 8 6 14 9 14 5 0 -6 38 17 165 100 33 21 65 41 70 43 9 4 80 55 170
124 16 12 37 30 47 40 10 9 18 14 18 11 0 -3 6 1 14 8 7 7 50 47 96 88 89 81
205 198 267 270 21 24 45 51 53 60 8 8 42 51 75 95 33 44 63 82 68 83 4 2 7 8
7 14 0 11 51 81 63 86 4 2 5 8 1 13 -3 5 -1 9 4 9 5 0 12 8 16 18 6 20 25 50
44 70 6 7 12 20 12 28 0 8 4 14 8 14 4 0 24 31 43 70 18 38 37 70 42 70 4 0 7
5 7 11 0 7 18 49 40 95 22 45 56 124 75 176 20 51 40 100 44 108 8 14 41 124
42 135 0 2 6 20 15 40 8 19 14 37 14 40 0 3 1 7 1 10 1 3 3 10 4 15 1 6 3 11
5 13 1 1 3 11 5 22 1 11 8 40 14 65 18 69 24 99 37 170 4 19 8 44 11 55 2 11
6 40 8 65 3 25 8 56 10 70 10 52 16 118 20 205 2 50 4 90 5 90 1 0 2 26 4 58
1 31 -2 57 -7 57 -5 0 -5 5 0 13 6 6 9 26 8 42 -1 17 -6 90 -10 164 -4 74 -9
144 -11 155 -2 12 -7 44 -10 71 -3 28 -10 75 -15 105 -6 30 -12 64 -14 75 -3
22 -15 85 -19 100 -2 6 -6 21 -9 35 -4 14 -9 36 -12 50 -7 41 -22 93 -34 123
-6 15 -8 27 -5 27 4 0 1 7 -6 15 -7 8 -9 15 -6 15 4 0 2 9 -4 21 -6 11 -13 29
-15 40 -5 23 -58 167 -81 216 -8 17 -14 34 -14 37 0 10 -124 257 -154 306 -15
25 -29 53 -33 63 -3 9 -9 17 -14 17 -5 0 -9 4 -9 10 0 18 -174 271 -192 278
-4 2 -8 9 -8 16 0 6 -9 18 -20 26 -11 8 -20 18 -20 22 0 4 -10 18 -22 31 -13
13 -53 57 -89 98 -37 41 -97 103 -134 139 -87 84 -90 86 -160 145 -33 28 -62
52 -65 55 -19 19 -132 100 -139 100 -5 0 -11 3 -13 8 -8 19 -264 182 -286 182
-5 0 -12 4 -14 8 -2 7 -212 114 -228 117 -3 1 -27 11 -55 24 -27 13 -55 24
-62 25 -7 1 -19 8 -25 14 -7 7 -20 12 -29 12 -9 0 -33 7 -53 15 -20 8 -39 16
-43 16 -5 0 -23 7 -40 14 -35 15 -263 82 -304 89 -13 2 -24 5 -24 6 0 1 -9 3
-20 5 -49 8 -82 15 -105 21 -14 3 -36 7 -50 9 -14 1 -25 3 -25 4 0 2 -16 4
-35 6 -19 3 -48 7 -65 9 -16 3 -59 8 -95 11 -36 4 -76 9 -90 12 -28 5 -556 14
-562 8z"/>
<path d="M7888 14452 c-14 -3 -15 -320 -15 -3127 0 -2287 3 -3125 11 -3128 6
-2 1017 -3 2246 -3 l2235 1 2 626 2 625 -1545 0 c-850 -1 -1552 1 -1560 4 -14
5 -16 258 -16 2503 0 1373 -3 2497 -6 2498 -19 2 -1341 4 -1354 1z"/>
<path d="M7887 7162 c-14 -3 -16 -16 -13 -95 2 -51 5 -92 6 -92 1 0 3 -23 5
-51 1 -28 5 -60 9 -70 3 -10 8 -36 12 -58 3 -21 8 -48 10 -60 3 -11 7 -32 10
-45 3 -14 8 -29 12 -35 6 -11 8 -15 14 -51 2 -11 6 -24 9 -30 4 -5 10 -23 14
-40 12 -44 12 -45 15 -50 1 -3 3 -8 4 -12 9 -33 128 -276 158 -321 15 -24 28
-47 28 -52 0 -4 3 -10 8 -12 4 -1 24 -28 44 -58 21 -31 45 -64 55 -75 10 -11
36 -43 58 -70 38 -47 191 -202 232 -235 10 -8 41 -33 68 -55 28 -22 73 -56
100 -75 28 -19 52 -38 53 -42 2 -4 8 -8 14 -8 6 0 40 -18 75 -40 35 -23 74
-45 86 -50 12 -6 29 -14 37 -19 70 -43 400 -169 400 -153 0 4 4 2 8 -4 4 -7
24 -15 46 -18 21 -4 42 -8 46 -11 5 -3 21 -7 37 -9 33 -5 82 -15 103 -21 8 -2
38 -7 65 -11 28 -3 59 -8 70 -10 118 -25 580 -24 695 1 14 3 43 8 65 11 22 3
51 7 65 8 14 2 34 7 44 11 10 5 28 9 40 10 12 0 37 6 56 13 19 6 46 13 60 16
30 5 171 52 218 72 17 8 49 21 70 30 116 50 342 176 350 196 2 5 8 8 13 8 6 0
41 25 78 54 38 30 71 52 75 49 3 -4 6 1 6 10 0 10 4 17 9 17 11 0 180 166 235
230 21 25 50 62 64 83 13 20 29 37 33 37 5 0 9 4 9 9 0 5 25 47 55 93 30 45
55 88 55 95 0 6 4 13 8 15 10 4 102 195 102 212 0 7 4 16 9 22 5 5 17 34 27
64 20 61 19 58 34 119 6 24 14 49 17 55 4 6 8 26 10 45 2 18 9 43 14 53 6 11
9 22 6 24 -3 3 -1 22 4 42 12 52 23 173 24 262 l0 74 -2216 1 c-1218 0 -2223
-1 -2232 -3z"/>
</g>
</svg>
